<?xml version="1.0" encoding="iso-8859-1"?>
<!-- Generator: Adobe Illustrator 19.0.0, SVG Export Plug-In . SVG Version: 6.00 Build 0)  -->
<svg version="1.1" id="Layer_1" xmlns="http://www.w3.org/2000/svg" xmlns:xlink="http://www.w3.org/1999/xlink" x="0px" y="0px"
	 viewBox="0 0 512 512" style="enable-background:new 0 0 512 512;" xml:space="preserve">
<path style="fill:#3D6DEB;" d="M279.273,0C215.11,0,162.909,52.201,162.909,116.364v116.364h-23.273
	c-12.853,0-23.273,10.42-23.273,23.273c0,12.853,10.42,23.273,23.273,23.273h23.273v186.182h-23.273
	c-12.853,0-23.273,10.42-23.273,23.273S126.784,512,139.636,512h186.182c12.853,0,23.273-10.42,23.273-23.273
	s-10.42-23.273-23.273-23.273H209.455V279.273h116.364c12.853,0,23.273-10.42,23.273-23.273c0-12.853-10.42-23.273-23.273-23.273
	H209.455V116.364c0-38.498,31.32-69.818,69.818-69.818c38.499,0,69.818,31.32,69.818,69.818c0,12.853,10.42,23.273,23.273,23.273
	s23.273-10.42,23.273-23.273C395.636,52.201,343.436,0,279.273,0z"/>
<g>
</g>
<g>
</g>
<g>
</g>
<g>
</g>
<g>
</g>
<g>
</g>
<g>
</g>
<g>
</g>
<g>
</g>
<g>
</g>
<g>
</g>
<g>
</g>
<g>
</g>
<g>
</g>
<g>
</g>
</svg>
