<?xml version="1.0" encoding="iso-8859-1"?>
<!-- Generator: Adobe Illustrator 19.0.0, SVG Export Plug-In . SVG Version: 6.00 Build 0)  -->
<svg version="1.1" id="Layer_1" xmlns="http://www.w3.org/2000/svg" xmlns:xlink="http://www.w3.org/1999/xlink" x="0px" y="0px"
	 viewBox="0 0 512 512" style="enable-background:new 0 0 512 512;" xml:space="preserve">
<g>
	<path style="fill:#3D6DEB;" d="M220,56H86.667c-11.045,0-20,8.955-20,20v293.333C66.667,395.065,45.732,416,20,416
		c-11.045,0-20,8.955-20,20c0,11.045,8.955,20,20,20c47.788,0,86.667-38.879,86.667-86.667V96H200v340c0,11.045,8.955,20,20,20
		c11.045,0,20-8.955,20-20V76C240,64.955,231.045,56,220,56z"/>
	<path style="fill:#3D6DEB;" d="M452.103,238.5C474.069,219.419,488,191.313,488,160c0-57.345-46.653-104-104-104
		c-0.232,0-0.461,0.004-0.691,0.012H300c-11.045,0-20,8.955-20,20V244c0,0.003,0,0.004,0,0.007c0,0.003,0,0.004,0,0.007V436
		c0,11.045,8.955,20,20,20h96c63.963,0,116-52.037,116-116C512,296.375,487.789,258.304,452.103,238.5z M320,96.012h64
		c0.201,0,0.403-0.003,0.603-0.009C419.617,96.327,448,124.911,448,160c0,35.289-28.709,64-64,64h-64V96.012z M396,416h-76V264.013
		h76c0.217,0,0.432-0.004,0.648-0.011C438.255,264.355,472,298.311,472,340C472,381.907,437.907,416,396,416z"/>
</g>
<g>
</g>
<g>
</g>
<g>
</g>
<g>
</g>
<g>
</g>
<g>
</g>
<g>
</g>
<g>
</g>
<g>
</g>
<g>
</g>
<g>
</g>
<g>
</g>
<g>
</g>
<g>
</g>
<g>
</g>
</svg>
