<?xml version="1.0" encoding="iso-8859-1"?>
<!-- Generator: Adobe Illustrator 19.0.0, SVG Export Plug-In . SVG Version: 6.00 Build 0)  -->
<svg version="1.1" id="Layer_1" xmlns="http://www.w3.org/2000/svg" xmlns:xlink="http://www.w3.org/1999/xlink" x="0px" y="0px"
	 viewBox="0 0 512 512" style="enable-background:new 0 0 512 512;" xml:space="preserve">
<g>
	<path style="fill:#3D6DEB;" d="M418.909,235.062V97.088c27.086,9.607,46.545,35.475,46.545,65.814
		c0,12.853,10.42,23.273,23.273,23.273S512,175.754,512,162.901c0-56.194-40.042-103.21-93.091-114.022v-25.6
		c0-12.853-10.42-23.273-23.273-23.273s-23.273,10.42-23.273,23.273v25.6c-53.049,10.811-93.091,57.827-93.091,114.022
		s40.042,103.21,93.091,114.022v137.975c-27.088-9.607-46.545-35.475-46.545-65.814c0-12.853-10.42-23.273-23.273-23.273
		s-23.273,10.42-23.273,23.273c0,56.194,40.042,103.21,93.091,114.022v25.614c0,12.853,10.42,23.273,23.273,23.273
		s23.273-10.42,23.273-23.273v-25.614C471.958,452.296,512,405.281,512,349.085S471.958,245.873,418.909,235.062z M325.818,162.903
		c0-30.34,19.458-56.208,46.545-65.814v131.629C345.276,219.11,325.818,193.241,325.818,162.903z M418.909,414.898V283.269
		c27.086,9.607,46.545,35.475,46.545,65.814C465.455,379.422,445.995,405.291,418.909,414.898z"/>
	<path style="fill:#3D6DEB;" d="M116.364,93.097c38.498,0,69.818,31.32,69.818,69.818c0,12.853,10.42,23.273,23.273,23.273
		c12.853,0,23.273-10.42,23.273-23.273c0-64.163-52.201-116.364-116.364-116.364S0,98.752,0,162.915v186.182
		c0,64.163,52.201,116.364,116.364,116.364s116.364-52.201,116.364-116.364c0-12.853-10.42-23.273-23.273-23.273
		c-12.853,0-23.273,10.42-23.273,23.273c0,38.498-31.32,69.818-69.818,69.818s-69.818-31.32-69.818-69.818V162.915
		C46.545,124.418,77.866,93.097,116.364,93.097z"/>
</g>
<g>
</g>
<g>
</g>
<g>
</g>
<g>
</g>
<g>
</g>
<g>
</g>
<g>
</g>
<g>
</g>
<g>
</g>
<g>
</g>
<g>
</g>
<g>
</g>
<g>
</g>
<g>
</g>
<g>
</g>
</svg>
