<?xml version="1.0" encoding="iso-8859-1"?>
<!-- Generator: Adobe Illustrator 19.0.0, SVG Export Plug-In . SVG Version: 6.00 Build 0)  -->
<svg version="1.1" id="Layer_1" xmlns="http://www.w3.org/2000/svg" xmlns:xlink="http://www.w3.org/1999/xlink" x="0px" y="0px"
	 viewBox="0 0 512 512" style="enable-background:new 0 0 512 512;" xml:space="preserve">
<path style="fill:#3D6DEB;" d="M395.635,294.788H279.273v-46.543h116.363c12.853,0,23.273-10.42,23.273-23.273
	s-10.42-23.273-23.272-23.273H294.963l90.133-167.39c6.094-11.317,1.859-25.431-9.458-31.523
	c-11.317-6.093-25.432-1.86-31.523,9.458L256,175.886L167.886,12.245c-6.096-11.318-20.215-15.552-31.525-9.458
	c-11.317,6.094-15.552,20.207-9.458,31.523l90.133,167.39H116.365c-12.853,0-23.273,10.42-23.273,23.273s10.42,23.273,23.273,23.273
	h116.363v46.544H116.365c-12.853,0-23.273,10.42-23.273,23.273s10.42,23.272,23.273,23.272h116.363v147.394
	C232.728,501.58,243.147,512,256,512s23.273-10.42,23.273-23.273V341.334h116.363c12.853,0,23.273-10.42,23.273-23.272
	C418.908,305.208,408.488,294.788,395.635,294.788z"/>
<g>
</g>
<g>
</g>
<g>
</g>
<g>
</g>
<g>
</g>
<g>
</g>
<g>
</g>
<g>
</g>
<g>
</g>
<g>
</g>
<g>
</g>
<g>
</g>
<g>
</g>
<g>
</g>
<g>
</g>
</svg>
