<?xml version="1.0" encoding="iso-8859-1"?>
<!-- Generator: Adobe Illustrator 19.0.0, SVG Export Plug-In . SVG Version: 6.00 Build 0)  -->
<svg version="1.1" id="Layer_1" xmlns="http://www.w3.org/2000/svg" xmlns:xlink="http://www.w3.org/1999/xlink" x="0px" y="0px"
	 viewBox="0 0 512 512" style="enable-background:new 0 0 512 512;" xml:space="preserve">
<path style="fill:#3D6DEB;" d="M372.364,372.364c-12.853,0-23.273,10.42-23.273,23.273c0,38.498-31.32,69.818-69.818,69.818
	s-69.818-31.32-69.818-69.818v-69.818h116.364c12.853,0,23.273-10.42,23.273-23.273s-10.42-23.273-23.273-23.273H209.455v-46.545
	h116.364c12.853,0,23.273-10.42,23.273-23.273c0-12.853-10.42-23.273-23.273-23.273H209.455v-69.818
	c0-38.498,31.32-69.818,69.818-69.818s69.818,31.32,69.818,69.818c0,12.853,10.42,23.273,23.273,23.273s23.273-10.42,23.273-23.273
	C395.636,52.201,343.436,0,279.273,0S162.909,52.201,162.909,116.364v69.818h-23.273c-12.853,0-23.273,10.42-23.273,23.273
	c0,12.853,10.42,23.273,23.273,23.273h23.273v46.545h-23.273c-12.853,0-23.273,10.42-23.273,23.273s10.42,23.273,23.273,23.273
	h23.273v69.818C162.909,459.799,215.11,512,279.273,512s116.364-52.201,116.364-116.364
	C395.636,382.784,385.216,372.364,372.364,372.364z"/>
<g>
</g>
<g>
</g>
<g>
</g>
<g>
</g>
<g>
</g>
<g>
</g>
<g>
</g>
<g>
</g>
<g>
</g>
<g>
</g>
<g>
</g>
<g>
</g>
<g>
</g>
<g>
</g>
<g>
</g>
</svg>
