<?xml version="1.0" encoding="iso-8859-1"?>
<!-- Generator: Adobe Illustrator 19.0.0, SVG Export Plug-In . SVG Version: 6.00 Build 0)  -->
<svg version="1.1" id="Layer_1" xmlns="http://www.w3.org/2000/svg" xmlns:xlink="http://www.w3.org/1999/xlink" x="0px" y="0px"
	 viewBox="0 0 512 512" style="enable-background:new 0 0 512 512;" xml:space="preserve">
<g>
	<path style="fill:#3D6DEB;" d="M265.485,0.03L151.71,0.015c-0.364-0.036-0.62,0.004-0.929,0.015H37.932
		c-15.708,0-28.444,12.735-28.444,28.444v455.082C9.489,499.264,22.224,512,37.932,512s28.444-12.735,28.444-28.444V287.128h142.408
		c15.708,0,28.444-12.735,28.444-28.444c0-15.708-12.735-28.444-28.444-28.444H66.376V56.917h199.105
		c15.708,0,28.442-12.733,28.444-28.442C293.927,12.769,281.193,0.032,265.485,0.03z"/>
	<path style="fill:#3D6DEB;" d="M474.067,455.114c-36.596,0-66.368-29.773-66.368-66.368V170.692h28.444
		c15.708,0,28.444-12.735,28.444-28.444s-12.735-28.444-28.444-28.444h-28.444V28.474c0-15.708-12.735-28.444-28.444-28.444
		c-15.708,0-28.444,12.735-28.444,28.444v85.331h-28.444c-15.708,0-28.444,12.735-28.444,28.444s12.735,28.444,28.444,28.444h28.444
		v218.052c0,67.963,55.292,123.256,123.256,123.256c15.708,0,28.444-12.735,28.444-28.444
		C502.511,467.848,489.776,455.114,474.067,455.114z"/>
</g>
<g>
</g>
<g>
</g>
<g>
</g>
<g>
</g>
<g>
</g>
<g>
</g>
<g>
</g>
<g>
</g>
<g>
</g>
<g>
</g>
<g>
</g>
<g>
</g>
<g>
</g>
<g>
</g>
<g>
</g>
</svg>
