<?xml version="1.0" encoding="iso-8859-1"?>
<!-- Generator: Adobe Illustrator 19.0.0, SVG Export Plug-In . SVG Version: 6.00 Build 0)  -->
<svg version="1.1" id="Layer_1" xmlns="http://www.w3.org/2000/svg" xmlns:xlink="http://www.w3.org/1999/xlink" x="0px" y="0px"
	 viewBox="0 0 512 512" style="enable-background:new 0 0 512 512;" xml:space="preserve">
<g>
	<path style="fill:#3D6DEB;" d="M233.351,164.777c0-64.335-52.34-116.675-116.675-116.675c-0.268,0-0.537,0.005-0.804,0.014H23.273
		C10.42,48.116,0,58.536,0,71.389v369.253c0,12.853,10.42,23.273,23.273,23.273s23.273-10.42,23.273-23.273V281.465h70.13
		c0.22,0,0.439-0.003,0.658-0.009c38.367,0.355,69.472,31.676,69.472,70.125v89.059c0,12.853,10.42,23.273,23.273,23.273
		c12.853,0,23.273-10.42,23.273-23.273v-89.059c0-38.163-18.418-72.102-46.831-93.401
		C214.933,236.879,233.351,202.94,233.351,164.777z M116.675,234.907h-70.13V94.661h70.13c0.233,0,0.465-0.003,0.697-0.009
		c38.352,0.372,69.433,31.688,69.433,70.127C186.806,203.447,155.345,234.907,116.675,234.907z"/>
	<path style="fill:#3D6DEB;" d="M494.747,47.339c-10.175-2.726-20.914,1.725-26.179,10.851l-72.932,126.416L322.704,58.19
		c-5.266-9.124-16.001-13.579-26.179-10.851c-10.176,2.724-17.253,11.947-17.253,22.481v372.364
		c0,12.853,10.42,23.273,23.273,23.273s23.273-10.42,23.273-23.273V156.731l49.659,86.077c4.157,7.204,11.841,11.643,20.159,11.643
		s16.002-4.439,20.159-11.643l49.659-86.077v285.452c0,12.853,10.42,23.273,23.273,23.273S512,455.036,512,442.184V69.82
		C512,59.285,504.924,50.065,494.747,47.339z"/>
</g>
<g>
</g>
<g>
</g>
<g>
</g>
<g>
</g>
<g>
</g>
<g>
</g>
<g>
</g>
<g>
</g>
<g>
</g>
<g>
</g>
<g>
</g>
<g>
</g>
<g>
</g>
<g>
</g>
<g>
</g>
</svg>
