<?xml version="1.0" encoding="iso-8859-1"?>
<!-- Generator: Adobe Illustrator 19.0.0, SVG Export Plug-In . SVG Version: 6.00 Build 0)  -->
<svg version="1.1" id="Layer_1" xmlns="http://www.w3.org/2000/svg" xmlns:xlink="http://www.w3.org/1999/xlink" x="0px" y="0px"
	 viewBox="0 0 512 512" style="enable-background:new 0 0 512 512;" xml:space="preserve">
<g>
	<path style="fill:#3D6DEB;" d="M266.282,0c-15.768,0-28.551,12.783-28.551,28.551v114.569c0,47.441-38.596,86.037-86.037,86.037
		H65.657V28.551C65.657,12.783,52.873,0,37.105,0S8.554,12.783,8.554,28.551v453.005c0,15.768,12.783,28.551,28.551,28.551
		s28.551-12.783,28.551-28.551V286.276h86.037c0.27,0,0.539-0.004,0.807-0.011c47.07,0.436,85.23,38.862,85.23,86.033v109.257
		c0,15.768,12.783,28.551,28.551,28.551s28.551-12.783,28.551-28.551V372.298c0-46.819-22.596-88.458-57.453-114.588
		c34.858-26.132,57.453-67.77,57.453-114.588V28.551C294.834,12.783,282.052,0,266.282,0z"/>
	<path style="fill:#3D6DEB;" d="M474.895,112.28c-25.034,0-48.34,7.496-67.834,20.331c-3.531-11.759-14.428-20.331-27.337-20.331
		c-15.768,0-28.551,12.783-28.551,28.551v342.618c0,15.768,12.783,28.551,28.551,28.551c15.768,0,28.551-12.783,28.551-28.551
		V236.003c0-36.734,29.886-66.62,66.62-66.62c15.768,0,28.551-12.783,28.551-28.551C503.446,125.063,490.663,112.28,474.895,112.28z
		"/>
</g>
<g>
</g>
<g>
</g>
<g>
</g>
<g>
</g>
<g>
</g>
<g>
</g>
<g>
</g>
<g>
</g>
<g>
</g>
<g>
</g>
<g>
</g>
<g>
</g>
<g>
</g>
<g>
</g>
<g>
</g>
</svg>
