<?xml version="1.0" encoding="iso-8859-1"?>
<!-- Generator: Adobe Illustrator 19.0.0, SVG Export Plug-In . SVG Version: 6.00 Build 0)  -->
<svg version="1.1" id="Layer_1" xmlns="http://www.w3.org/2000/svg" xmlns:xlink="http://www.w3.org/1999/xlink" x="0px" y="0px"
	 viewBox="0 0 512.001 512.001" style="enable-background:new 0 0 512.001 512.001;" xml:space="preserve">
<path style="fill:#3D6DEB;" d="M395.636,263.755h-7.758v-46.544h7.758c12.853,0,23.273-10.42,23.273-23.273
	s-10.42-23.273-23.273-23.273h-7.758V23.273C387.879,10.42,377.459,0,364.606,0c-12.853,0-23.273,10.42-23.273,23.273v147.395
	H170.667V23.273C170.667,10.42,160.247,0,147.395,0s-23.273,10.42-23.273,23.273v147.395h-7.758
	c-12.853,0-23.273,10.42-23.273,23.273c0,12.853,10.42,23.273,23.273,23.273h7.758v46.544h-7.758
	c-12.853,0-23.273,10.42-23.273,23.273c0,12.853,10.42,23.273,23.273,23.273h7.758v178.424c0,10.662,7.246,19.96,17.583,22.567
	c10.344,2.607,21.127-2.147,26.18-11.534L256,336.116l88.115,163.642c4.129,7.668,12.078,12.241,20.488,12.241
	c1.887,0,3.797-0.231,5.693-0.709c10.338-2.607,17.583-11.905,17.583-22.567V310.301h7.758c12.853,0,23.273-10.42,23.273-23.273
	C418.909,274.175,408.489,263.755,395.636,263.755z M170.667,217.213h170.666v46.544H170.667L170.667,217.213L170.667,217.213z
	 M170.667,310.301h46.37l-46.37,86.115V310.301z M341.333,396.417l-46.37-86.115h46.37V396.417z"/>
<g>
</g>
<g>
</g>
<g>
</g>
<g>
</g>
<g>
</g>
<g>
</g>
<g>
</g>
<g>
</g>
<g>
</g>
<g>
</g>
<g>
</g>
<g>
</g>
<g>
</g>
<g>
</g>
<g>
</g>
</svg>
