<?xml version="1.0" encoding="iso-8859-1"?>
<!-- Generator: Adobe Illustrator 19.0.0, SVG Export Plug-In . SVG Version: 6.00 Build 0)  -->
<svg version="1.1" id="Layer_1" xmlns="http://www.w3.org/2000/svg" xmlns:xlink="http://www.w3.org/1999/xlink" x="0px" y="0px"
	 viewBox="0 0 512 512" style="enable-background:new 0 0 512 512;" xml:space="preserve">
<g>
	<path style="fill:#3D6DEB;" d="M163.462,279.28c-12.852,0-23.272,10.42-23.272,23.272v68.718H92.546v-68.718
		c0-12.852-10.42-23.272-23.272-23.272s-23.272,10.42-23.272,23.272v186.176c0,12.852,10.42,23.272,23.272,23.272
		s23.272-10.42,23.272-23.272V417.82h47.644v70.908c0,12.852,10.42,23.272,23.272,23.272s23.272-10.42,23.272-23.272V302.552
		C186.734,289.7,176.314,279.28,163.462,279.28z"/>
	<path style="fill:#3D6DEB;" d="M442.729,0.034l-93.088-0.012c-0.298-0.053-0.509,0.005-0.762,0.012H256.55
		c-12.852,0-23.272,10.42-23.272,23.272v465.422c0,12.852,10.42,23.272,23.272,23.272c12.852,0,23.272-10.42,23.272-23.272V281.475
		h116.515c12.852,0,23.272-10.42,23.272-23.272s-10.42-23.272-23.272-23.272H279.822V46.579h162.904
		c12.852,0,23.27-10.418,23.272-23.27S455.582,0.036,442.729,0.034z"/>
	<path style="fill:#3D6DEB;" d="M115.818,232.748c38.497,0,69.816-31.319,69.816-69.816c0-12.852-10.42-23.272-23.272-23.272
		s-23.272,10.42-23.272,23.272c0,12.832-10.44,23.272-23.272,23.272s-23.272-10.44-23.272-23.272V69.844
		c0-12.832,10.44-23.272,23.272-23.272s23.272,10.44,23.272,23.272c0,12.852,10.42,23.272,23.272,23.272s23.272-10.42,23.272-23.272
		c0-38.498-31.319-69.816-69.816-69.816S46.002,31.346,46.002,69.844v93.088C46.002,201.431,77.32,232.748,115.818,232.748z"/>
</g>
<g>
</g>
<g>
</g>
<g>
</g>
<g>
</g>
<g>
</g>
<g>
</g>
<g>
</g>
<g>
</g>
<g>
</g>
<g>
</g>
<g>
</g>
<g>
</g>
<g>
</g>
<g>
</g>
<g>
</g>
</svg>
