<?xml version="1.0" encoding="iso-8859-1"?>
<!-- Generator: Adobe Illustrator 19.0.0, SVG Export Plug-In . SVG Version: 6.00 Build 0)  -->
<svg version="1.1" id="Layer_1" xmlns="http://www.w3.org/2000/svg" xmlns:xlink="http://www.w3.org/1999/xlink" x="0px" y="0px"
	 viewBox="0 0 512 512" style="enable-background:new 0 0 512 512;" xml:space="preserve">
<path style="fill:#3D6DEB;" d="M390.985,353.749c0-50.765-28.173-95.067-69.701-118.112c25.562-22.206,41.773-54.91,41.773-91.348
	c0-60.401-44.48-110.604-102.403-119.586v-1.429C260.655,10.42,250.234,0,237.381,0c-12.853,0-23.273,10.42-23.273,23.273v0.006
	h-69.82c-12.853,0-23.273,10.42-23.273,23.273v195.482c0,0.003,0,0.005,0,0.008c0,0.003,0,0.006,0,0.008v223.409
	c0,12.853,10.42,23.273,23.273,23.273h69.82C214.113,501.583,224.53,512,237.381,512c12.853,0,23.273-10.42,23.273-23.273v-0.082
	C332.937,486.182,390.985,426.621,390.985,353.749z M316.511,144.289c0,34.639-23.77,63.83-55.856,72.118V72.18
	C292.738,80.47,316.511,109.65,316.511,144.289z M167.561,69.826h46.547v148.936h-46.547V69.826z M167.561,265.326h46.547v176.862
	h-46.547V265.326z M260.655,442.064V265.445c46.607,2.431,83.784,41.102,83.784,88.304
	C344.439,400.952,307.263,439.634,260.655,442.064z"/>
<g>
</g>
<g>
</g>
<g>
</g>
<g>
</g>
<g>
</g>
<g>
</g>
<g>
</g>
<g>
</g>
<g>
</g>
<g>
</g>
<g>
</g>
<g>
</g>
<g>
</g>
<g>
</g>
<g>
</g>
</svg>
