<?xml version="1.0" encoding="iso-8859-1"?>
<!-- Generator: Adobe Illustrator 19.0.0, SVG Export Plug-In . SVG Version: 6.00 Build 0)  -->
<svg version="1.1" id="Layer_1" xmlns="http://www.w3.org/2000/svg" xmlns:xlink="http://www.w3.org/1999/xlink" x="0px" y="0px"
	 viewBox="0 0 512 512" style="enable-background:new 0 0 512 512;" xml:space="preserve">
<path style="fill:#3D6DEB;" d="M372.364,294.788h-23.273v-46.545h23.273c12.853,0,23.273-10.42,23.273-23.273
	c0-12.853-10.42-23.273-23.273-23.273h-23.273v-85.333C349.091,52.201,296.89,0,232.727,0S116.364,52.201,116.364,116.364
	c0,12.853,10.42,23.273,23.273,23.273c12.853,0,23.273-10.42,23.273-23.273c0-38.498,31.32-69.818,69.818-69.818
	s69.818,31.32,69.818,69.818v85.333H186.182c-12.853,0-23.273,10.42-23.273,23.273c0,12.853,10.42,23.273,23.273,23.273h116.364
	v46.545H186.182c-12.853,0-23.273,10.42-23.273,23.273c0,12.853,10.42,23.273,23.273,23.273h116.364v147.394
	c0,12.853,10.42,23.273,23.273,23.273s23.273-10.42,23.273-23.273V341.333h23.273c12.853,0,23.273-10.42,23.273-23.273
	C395.636,305.208,385.216,294.788,372.364,294.788z"/>
<g>
</g>
<g>
</g>
<g>
</g>
<g>
</g>
<g>
</g>
<g>
</g>
<g>
</g>
<g>
</g>
<g>
</g>
<g>
</g>
<g>
</g>
<g>
</g>
<g>
</g>
<g>
</g>
<g>
</g>
</svg>
