<?xml version="1.0" encoding="iso-8859-1"?>
<!-- Generator: Adobe Illustrator 19.0.0, SVG Export Plug-In . SVG Version: 6.00 Build 0)  -->
<svg version="1.1" id="Layer_1" xmlns="http://www.w3.org/2000/svg" xmlns:xlink="http://www.w3.org/1999/xlink" x="0px" y="0px"
	 viewBox="0 0 512 512" style="enable-background:new 0 0 512 512;" xml:space="preserve">
<g>
	<path style="fill:#3D6DEB;" d="M418.909,235.062V97.087c27.088,9.607,46.545,35.475,46.545,65.815
		c0,12.853,10.42,23.273,23.273,23.273S512,175.755,512,162.902c0-56.194-40.042-103.21-93.091-114.022v-25.6
		c0-12.853-10.42-23.273-23.273-23.273s-23.273,10.42-23.273,23.273v25.6c-53.049,10.811-93.091,57.827-93.091,114.022
		s40.042,103.21,93.091,114.022v137.975c-27.088-9.607-46.545-35.475-46.545-65.815c0-12.853-10.42-23.273-23.273-23.273
		s-23.273,10.42-23.273,23.273c0,56.194,40.042,103.21,93.091,114.022v25.614c0,12.853,10.42,23.273,23.273,23.273
		s23.273-10.42,23.273-23.273v-25.614C471.958,452.295,512,405.28,512,349.084S471.958,245.872,418.909,235.062z M325.818,162.902
		c0-30.34,19.458-56.208,46.545-65.815v131.631C345.276,219.11,325.818,193.24,325.818,162.902z M418.909,414.898V283.267
		c27.088,9.607,46.545,35.475,46.545,65.815C465.455,379.422,445.997,405.292,418.909,414.898z"/>
	<path style="fill:#3D6DEB;" d="M233.351,164.769c0-64.335-52.34-116.675-116.677-116.675c-0.268,0-0.537,0.005-0.804,0.014H23.273
		C10.42,48.107,0,58.527,0,71.38v369.253c0,12.853,10.42,23.273,23.273,23.273s23.273-10.42,23.273-23.273V281.456h70.13
		c0.22,0,0.439-0.003,0.658-0.009c38.369,0.355,69.474,31.676,69.474,70.125v89.059c0,12.853,10.42,23.273,23.273,23.273
		s23.273-10.42,23.273-23.273v-89.059c0-38.161-18.418-72.102-46.831-93.401C214.933,236.871,233.351,202.93,233.351,164.769z
		 M116.675,234.899h-70.13V94.651h70.13c0.233,0,0.465-0.003,0.697-0.009c38.353,0.372,69.435,31.688,69.435,70.127
		C186.806,203.439,155.345,234.899,116.675,234.899z"/>
</g>
<g>
</g>
<g>
</g>
<g>
</g>
<g>
</g>
<g>
</g>
<g>
</g>
<g>
</g>
<g>
</g>
<g>
</g>
<g>
</g>
<g>
</g>
<g>
</g>
<g>
</g>
<g>
</g>
<g>
</g>
</svg>
