<?xml version="1.0" encoding="iso-8859-1"?>
<!-- Generator: Adobe Illustrator 19.0.0, SVG Export Plug-In . SVG Version: 6.00 Build 0)  -->
<svg version="1.1" id="Layer_1" xmlns="http://www.w3.org/2000/svg" xmlns:xlink="http://www.w3.org/1999/xlink" x="0px" y="0px"
	 viewBox="0 0 512 512" style="enable-background:new 0 0 512 512;" xml:space="preserve">
<g>
	<path style="fill:#3D6DEB;" d="M231.086,40.706c-14.138,0-25.6,11.462-25.6,25.6v102.728c0,42.537-34.606,77.143-77.143,77.143
		H51.2V66.306c0-14.138-11.462-25.6-25.6-25.6S0,52.168,0,66.306v406.178c0,14.138,11.462,25.6,25.6,25.6s25.6-11.462,25.6-25.6
		V297.39h77.143c0.242,0,0.483-0.003,0.724-0.01c42.204,0.391,76.419,34.843,76.419,77.138v97.964c0,14.138,11.462,25.6,25.6,25.6
		c14.138,0,25.6-11.462,25.6-25.6v-97.964c0-41.979-20.26-79.312-51.514-102.741c31.254-23.431,51.514-60.764,51.514-102.743V66.306
		C256.686,52.168,245.224,40.706,231.086,40.706z"/>
	<path style="fill:#3D6DEB;" d="M486.4,371.78c-14.138,0-25.6,11.462-25.6,25.6c0,28.232-22.968,51.2-51.2,51.2
		s-51.2-22.968-51.2-51.2v-153.6c0-28.232,22.968-51.2,51.2-51.2s51.2,22.968,51.2,51.2c0,14.138,11.462,25.6,25.6,25.6
		c14.138,0,25.6-11.462,25.6-25.6c0-56.463-45.937-102.4-102.4-102.4s-102.4,45.937-102.4,102.4v153.6
		c0,56.463,45.937,102.4,102.4,102.4S512,453.843,512,397.38C512,383.242,500.538,371.78,486.4,371.78z"/>
	<path style="fill:#3D6DEB;" d="M359.673,57.972l33.935,26.6c0.046,0.038,0.094,0.075,0.14,0.111l0.058,0.044
		c0.652,0.512,1.326,0.976,2.01,1.417c0.253,0.16,0.512,0.305,0.77,0.457c0.521,0.309,1.046,0.599,1.58,0.867
		c0.247,0.121,0.491,0.246,0.741,0.36c0.722,0.331,1.451,0.633,2.191,0.894c0.055,0.019,0.108,0.043,0.16,0.061
		c0.84,0.29,1.691,0.526,2.55,0.724c0.164,0.039,0.328,0.067,0.493,0.102c0.703,0.148,1.411,0.266,2.121,0.355
		c0.198,0.026,0.396,0.053,0.596,0.073c0.853,0.085,1.708,0.143,2.563,0.143c0.007,0,0.012,0,0.017,0c0.005,0,0.012,0,0.017,0
		c0.855,0,1.712-0.058,2.565-0.143c0.198-0.02,0.394-0.048,0.592-0.073c0.712-0.089,1.422-0.207,2.127-0.355
		c0.162-0.036,0.326-0.063,0.486-0.102c0.86-0.198,1.714-0.434,2.555-0.724c0.048-0.017,0.094-0.038,0.14-0.055
		c0.749-0.263,1.487-0.57,2.215-0.905c0.244-0.113,0.483-0.234,0.724-0.353c0.541-0.27,1.075-0.563,1.603-0.877
		c0.251-0.148,0.505-0.29,0.751-0.449c0.686-0.439,1.36-0.905,2.016-1.418l0.065-0.049c0.043-0.036,0.087-0.068,0.131-0.104
		l33.939-26.604c11.127-8.723,13.076-24.815,4.354-35.942c-8.721-11.127-24.813-13.076-35.941-4.355L409.6,32.053l-18.34-14.377
		c-11.124-8.718-27.218-6.772-35.941,4.355C346.597,33.157,348.546,49.249,359.673,57.972z"/>
</g>
<g>
</g>
<g>
</g>
<g>
</g>
<g>
</g>
<g>
</g>
<g>
</g>
<g>
</g>
<g>
</g>
<g>
</g>
<g>
</g>
<g>
</g>
<g>
</g>
<g>
</g>
<g>
</g>
<g>
</g>
</svg>
