<?xml version="1.0" encoding="iso-8859-1"?>
<!-- Generator: Adobe Illustrator 19.0.0, SVG Export Plug-In . SVG Version: 6.00 Build 0)  -->
<svg version="1.1" id="Layer_1" xmlns="http://www.w3.org/2000/svg" xmlns:xlink="http://www.w3.org/1999/xlink" x="0px" y="0px"
	 viewBox="0 0 512 512" style="enable-background:new 0 0 512 512;" xml:space="preserve">
<g>
	<path style="fill:#3D6DEB;" d="M372.917,235.06V97.082c27.089,9.607,46.547,35.476,46.547,65.817
		c0,12.853,10.42,23.273,23.273,23.273s23.273-10.42,23.273-23.273c0-56.197-40.042-103.212-93.093-114.025V23.273
		C372.917,10.42,362.497,0,349.644,0s-23.273,10.42-23.273,23.273v25.601c-53.051,10.813-93.095,57.828-93.095,114.025
		s40.042,103.212,93.095,114.025v137.98c-27.089-9.607-46.547-35.476-46.547-65.818c0-12.853-10.42-23.273-23.275-23.273
		c-12.853,0-23.273,10.42-23.273,23.273c0,56.197,40.042,103.215,93.095,114.025v25.616c0,12.853,10.42,23.273,23.273,23.273
		s23.273-10.42,23.273-23.273v-25.618c53.051-10.813,93.093-57.828,93.093-114.024S425.968,245.873,372.917,235.06z
		 M279.824,162.899c0-30.341,19.458-56.21,46.547-65.817v131.634C299.282,219.109,279.824,193.24,279.824,162.899z M372.917,414.901
		V283.269c27.089,9.607,46.547,35.476,46.547,65.817S400.006,405.295,372.917,414.901z"/>
	<path style="fill:#3D6DEB;" d="M163.458,0c-12.853,0-23.273,10.42-23.273,23.273v70.912H92.536V23.273
		C92.536,10.42,82.116,0,69.263,0S45.99,10.42,45.99,23.273V209.46c0,12.853,10.42,23.273,23.273,23.273s23.273-10.42,23.273-23.273
		v-68.721h47.647v68.721c0,12.853,10.42,23.273,23.273,23.273s23.273-10.42,23.273-23.273V23.273C186.731,10.42,176.311,0,163.458,0
		z"/>
	<path style="fill:#3D6DEB;" d="M163.458,279.266c-12.853,0-23.273,10.42-23.273,23.273v47.09c0,13.137-10.687,23.823-23.824,23.823
		H92.536v-70.912c0-12.853-10.42-23.273-23.273-23.273s-23.273,10.42-23.273,23.273v186.188C45.99,501.58,56.41,512,69.263,512
		s23.273-10.42,23.273-23.273v-68.723h23.823c0.127,0,0.254-0.002,0.382-0.003c12.962,0.205,23.442,10.811,23.442,23.819v44.907
		c0,12.853,10.42,23.273,23.273,23.273s23.273-10.42,23.273-23.273V443.82c0-18.096-6.87-34.615-18.135-47.096
		c11.264-12.481,18.135-29,18.135-47.096v-47.09C186.731,289.686,176.311,279.266,163.458,279.266z"/>
</g>
<g>
</g>
<g>
</g>
<g>
</g>
<g>
</g>
<g>
</g>
<g>
</g>
<g>
</g>
<g>
</g>
<g>
</g>
<g>
</g>
<g>
</g>
<g>
</g>
<g>
</g>
<g>
</g>
<g>
</g>
</svg>
