<?xml version="1.0" encoding="iso-8859-1"?>
<!-- Generator: Adobe Illustrator 19.0.0, SVG Export Plug-In . SVG Version: 6.00 Build 0)  -->
<svg version="1.1" id="Layer_1" xmlns="http://www.w3.org/2000/svg" xmlns:xlink="http://www.w3.org/1999/xlink" x="0px" y="0px"
	 viewBox="0 0 512 512" style="enable-background:new 0 0 512 512;" xml:space="preserve">
<g>
	<path style="fill:#3D6DEB;" d="M395.636,0c-12.853,0-23.273,10.42-23.273,23.273v442.182H232.727V116.364
		c0-12.853-10.42-23.273-23.273-23.273c-12.853,0-23.273,10.42-23.273,23.273v372.364c0,12.853,10.42,23.273,23.273,23.273h186.182
		c12.853,0,23.273-10.42,23.273-23.273V23.273C418.909,10.42,408.489,0,395.636,0z"/>
	<path style="fill:#3D6DEB;" d="M279.273,395.636c0,12.853,10.42,23.273,23.273,23.273s23.273-10.42,23.273-23.273V23.273
		C325.818,10.42,315.398,0,302.545,0H116.364c-12.853,0-23.273,10.42-23.273,23.273v465.455c0,12.853,10.42,23.273,23.273,23.273
		s23.273-10.42,23.273-23.273V46.545h139.636V395.636z"/>
</g>
<g>
</g>
<g>
</g>
<g>
</g>
<g>
</g>
<g>
</g>
<g>
</g>
<g>
</g>
<g>
</g>
<g>
</g>
<g>
</g>
<g>
</g>
<g>
</g>
<g>
</g>
<g>
</g>
<g>
</g>
</svg>
