<?xml version="1.0" encoding="iso-8859-1"?>
<!-- Generator: Adobe Illustrator 19.0.0, SVG Export Plug-In . SVG Version: 6.00 Build 0)  -->
<svg version="1.1" id="Layer_1" xmlns="http://www.w3.org/2000/svg" xmlns:xlink="http://www.w3.org/1999/xlink" x="0px" y="0px"
	 viewBox="0 0 512.002 512.002" style="enable-background:new 0 0 512.002 512.002;" xml:space="preserve">
<g>
	<path style="fill:#3D6DEB;" d="M255.975,455.109H131.489L281.39,156.963c4.434-8.818,3.98-19.303-1.2-27.704
		c-5.179-8.403-14.342-13.517-24.213-13.517H85.348c-15.709,0-28.445,12.736-28.445,28.445s12.736,28.445,28.445,28.445h124.488
		L59.934,470.777c-4.434,8.818-3.98,19.303,1.2,27.704c5.179,8.403,14.342,13.517,24.215,13.517h170.628
		c15.709,0,28.445-12.736,28.445-28.445C284.42,467.845,271.686,455.109,255.975,455.109z"/>
	<path style="fill:#3D6DEB;" d="M453.633,322.852c-4.968-14.903-21.082-22.959-35.981-17.991l-19.451,6.484v-282.9
		C398.201,12.736,385.465,0,369.756,0c-15.709,0-28.445,12.736-28.445,28.445v301.863l-37.44,12.48
		c-14.903,4.968-22.957,21.078-17.991,35.981c3.975,11.92,15.07,19.457,26.983,19.457c2.981,0,6.015-0.472,8.998-1.466l19.451-6.484
		v93.28c0,15.709,12.736,28.445,28.445,28.445s28.445-12.736,28.445-28.445V371.313l37.44-12.48
		C450.546,353.863,458.6,337.756,453.633,322.852z"/>
</g>
<g>
</g>
<g>
</g>
<g>
</g>
<g>
</g>
<g>
</g>
<g>
</g>
<g>
</g>
<g>
</g>
<g>
</g>
<g>
</g>
<g>
</g>
<g>
</g>
<g>
</g>
<g>
</g>
<g>
</g>
</svg>
