<?xml version="1.0" encoding="iso-8859-1"?>
<!-- Generator: Adobe Illustrator 19.0.0, SVG Export Plug-In . SVG Version: 6.00 Build 0)  -->
<svg version="1.1" id="Layer_1" xmlns="http://www.w3.org/2000/svg" xmlns:xlink="http://www.w3.org/1999/xlink" x="0px" y="0px"
	 viewBox="0 0 512 512" style="enable-background:new 0 0 512 512;" xml:space="preserve">
<path style="fill:#3D6DEB;" d="M279.273,263.758c72.718,0,131.879-59.161,131.879-131.879S351.991,0,279.273,0
	c-0.284,0-0.566,0.005-0.847,0.016H170.698c-0.011,0-0.02-0.002-0.029-0.002c-12.853,0-23.273,10.42-23.273,23.273v0.002v217.197
	v69.818h-23.274c-12.853,0-23.273,10.42-23.273,23.273s10.42,23.273,23.273,23.273h23.273v131.879
	c0,12.853,10.42,23.273,23.273,23.273c12.853,0,23.273-10.42,23.273-23.273V356.848h85.333c12.853,0,23.273-10.42,23.273-23.273
	s-10.42-23.273-23.273-23.273h-85.333v-46.545H279.273z M279.273,46.561c0.251,0,0.503-0.005,0.751-0.012
	c46.71,0.403,84.582,38.527,84.582,85.33c0,47.053-38.281,85.333-85.333,85.333h-85.333V46.561H279.273z"/>
<g>
</g>
<g>
</g>
<g>
</g>
<g>
</g>
<g>
</g>
<g>
</g>
<g>
</g>
<g>
</g>
<g>
</g>
<g>
</g>
<g>
</g>
<g>
</g>
<g>
</g>
<g>
</g>
<g>
</g>
</svg>
