<?xml version="1.0" encoding="iso-8859-1"?>
<!-- Generator: Adobe Illustrator 19.0.0, SVG Export Plug-In . SVG Version: 6.00 Build 0)  -->
<svg version="1.1" id="Layer_1" xmlns="http://www.w3.org/2000/svg" xmlns:xlink="http://www.w3.org/1999/xlink" x="0px" y="0px"
	 viewBox="0 0 512 512" style="enable-background:new 0 0 512 512;" xml:space="preserve">
<path style="fill:#3D6DEB;" d="M342.002,258.675c34.986-26.228,57.664-68.02,57.664-115.009C399.664,64.448,335.216,0,255.999,0
	c-0.332,0-0.661,0.006-0.992,0.017H140.99c-15.826,0-28.656,12.83-28.656,28.656v454.67c0,15.826,12.83,28.656,28.656,28.656
	s28.656-12.83,28.656-28.656V287.346h86.353c0.271,0,0.541-0.004,0.81-0.011c47.245,0.437,85.543,39.003,85.543,86.347v109.66
	c0,15.826,12.83,28.656,28.656,28.656s28.656-12.83,28.656-28.656v-109.66C399.664,326.693,376.986,284.903,342.002,258.675z
	 M169.646,57.33h86.353c0.287,0,0.573-0.004,0.858-0.011c47.224,0.458,85.495,39.018,85.495,86.349
	c0,47.615-38.738,86.353-86.353,86.353h-86.353V57.33z"/>
<g>
</g>
<g>
</g>
<g>
</g>
<g>
</g>
<g>
</g>
<g>
</g>
<g>
</g>
<g>
</g>
<g>
</g>
<g>
</g>
<g>
</g>
<g>
</g>
<g>
</g>
<g>
</g>
<g>
</g>
</svg>
