<?xml version="1.0" encoding="iso-8859-1"?>
<!-- Generator: Adobe Illustrator 19.0.0, SVG Export Plug-In . SVG Version: 6.00 Build 0)  -->
<svg version="1.1" id="Layer_1" xmlns="http://www.w3.org/2000/svg" xmlns:xlink="http://www.w3.org/1999/xlink" x="0px" y="0px"
	 viewBox="0 0 512 512" style="enable-background:new 0 0 512 512;" xml:space="preserve">
<g>
	<path style="fill:#3D6DEB;" d="M452.267,153.6c14.138,0,25.6-11.462,25.6-25.6c0-14.138-11.462-25.6-25.6-25.6H59.733
		c-14.138,0-25.6,11.462-25.6,25.6c0,14.138,11.462,25.6,25.6,25.6h110.933v196.267c0,61.169-49.765,110.933-110.933,110.933
		c-14.138,0-25.6,11.462-25.6,25.6c0,14.138,11.462,25.6,25.6,25.6c89.4,0,162.133-72.733,162.133-162.133V153.6h119.467v247.467
		c0,61.169,49.765,110.933,110.933,110.933c14.138,0,25.6-11.462,25.6-25.6c0-14.138-11.462-25.6-25.6-25.6
		c-32.937,0-59.733-26.796-59.733-59.733V153.6H452.267z"/>
	<path style="fill:#3D6DEB;" d="M59.733,51.2h392.533c14.138,0,25.6-11.462,25.6-25.6S466.405,0,452.267,0H59.733
		c-14.138,0-25.6,11.462-25.6,25.6S45.595,51.2,59.733,51.2z"/>
</g>
<g>
</g>
<g>
</g>
<g>
</g>
<g>
</g>
<g>
</g>
<g>
</g>
<g>
</g>
<g>
</g>
<g>
</g>
<g>
</g>
<g>
</g>
<g>
</g>
<g>
</g>
<g>
</g>
<g>
</g>
</svg>
