<?xml version="1.0" encoding="iso-8859-1"?>
<!-- Generator: Adobe Illustrator 19.0.0, SVG Export Plug-In . SVG Version: 6.00 Build 0)  -->
<svg version="1.1" id="Layer_1" xmlns="http://www.w3.org/2000/svg" xmlns:xlink="http://www.w3.org/1999/xlink" x="0px" y="0px"
	 viewBox="0 0 512 512" style="enable-background:new 0 0 512 512;" xml:space="preserve">
<g>
	<path style="fill:#3D6DEB;" d="M356.852,465.453H108.6c-12.853,0-23.274,10.42-23.274,23.274S95.747,512,108.6,512h248.252
		c12.853,0,23.274-10.42,23.274-23.274S369.706,465.453,356.852,465.453z"/>
	<path style="fill:#3D6DEB;" d="M403.4,31.011h-23.274v-7.738C380.126,10.42,369.706,0,356.852,0
		c-12.853,0-23.274,10.42-23.274,23.274v7.738h-23.274c-12.853,0-23.274,10.42-23.274,23.274s10.42,23.274,23.274,23.274h23.274
		v86.558c-26.386-24.794-61.874-40.01-100.852-40.01c-81.276,0-147.4,66.124-147.4,147.4s66.124,147.4,147.4,147.4
		c38.979,0,74.466-15.215,100.852-40.01v16.737c0,12.853,10.42,23.274,23.274,23.274c12.853,0,23.274-10.42,23.274-23.274V77.559
		H403.4c12.853,0,23.274-10.42,23.274-23.274S416.253,31.011,403.4,31.011z M232.726,372.358
		c-55.61,0-100.852-45.242-100.852-100.852s45.242-100.852,100.852-100.852s100.852,45.242,100.852,100.852
		C333.579,327.117,288.336,372.358,232.726,372.358z"/>
</g>
<g>
</g>
<g>
</g>
<g>
</g>
<g>
</g>
<g>
</g>
<g>
</g>
<g>
</g>
<g>
</g>
<g>
</g>
<g>
</g>
<g>
</g>
<g>
</g>
<g>
</g>
<g>
</g>
<g>
</g>
</svg>
